<?xml version="1.0" encoding="iso-8859-1"?>
<!-- Generator: Adobe Illustrator 19.0.0, SVG Export Plug-In . SVG Version: 6.00 Build 0)  -->
<svg version="1.1" id="Layer_1" xmlns="http://www.w3.org/2000/svg" xmlns:xlink="http://www.w3.org/1999/xlink" x="0px" y="0px"
	 viewBox="0 0 511.999 511.999" style="enable-background:new 0 0 511.999 511.999;" xml:space="preserve">
<path style="fill:#C6C5CA;" d="M495.361,158.267H18.194c-9.188,0-16.637,7.449-16.637,16.637v319.615
	c0,9.188,7.449,16.637,16.637,16.637h477.168c9.188,0,16.637-7.449,16.637-16.637V174.904
	C511.998,165.716,504.549,158.267,495.361,158.267z"/>
<path style="fill:#E1E1E3;" d="M256.778,158.267H18.194c-9.188,0-16.637,7.449-16.637,16.637v319.615
	c0,9.188,7.449,16.637,16.637,16.637h238.584V158.267z"/>
<path style="fill:#797882;" d="M511.998,485.841l-255.24-171.173L1.557,486.54v7.979c0,9.188,7.449,16.637,16.637,16.637h6.377
	l232.226-156.399l233.21,156.4h5.354c9.188,0,16.637-7.449,16.637-16.637v-8.679H511.998z"/>
<path style="fill:#C6C5CA;" d="M257.333,315.053l-0.575-0.385L1.557,486.54v7.979c0,9.188,7.449,16.637,16.637,16.637h6.377
	l232.226-156.399l0.535,0.359v-40.063H257.333z"/>
<path style="fill:#9B9AA5;" d="M511.052,169.376c-2.345-6.656-8.634-11.108-15.69-11.108H18.194c-7.056,0-13.346,4.452-15.69,11.108
	s-0.236,14.067,5.262,18.49l228.801,184.101c5.707,4.593,12.886,7.122,20.212,7.122s14.504-2.529,20.212-7.122l228.801-184.101
	C511.288,183.441,513.398,176.031,511.052,169.376z"/>
<path style="fill:#C6C5CA;" d="M255.22,158.267H16.637c-7.056,0-13.346,4.452-15.69,11.108c-2.345,6.656-0.236,14.067,5.262,18.49
	l228.801,184.101c5.707,4.593,12.886,7.122,20.212,7.122v-220.82H255.22z"/>
<path style="fill:#FF9800;" d="M342.683,118.471c2.889,4.24,3.196,9.731,0.797,14.267c-2.398,4.536-7.108,7.374-12.24,7.374h-39.35
	v96.267c0,6.201-5.026,11.227-11.227,11.227h-50.887c-6.201,0-11.227-5.026-11.227-11.227v-96.267h-39.35
	c-5.131,0-9.841-2.838-12.24-7.374c-2.398-4.536-2.092-10.026,0.797-14.267L243.777,6.892c2.579-3.785,6.862-6.05,11.443-6.05
	c4.579,0,8.864,2.265,11.443,6.05L342.683,118.471z"/>
<path style="fill:#F7DC4D;" d="M255.199,247.607h-25.423c-6.201,0-11.227-5.026-11.227-11.227v-96.267h-39.35
	c-5.131,0-9.841-2.838-12.24-7.374c-2.398-4.536-2.092-10.026,0.797-14.266l76.021-111.58c2.574-3.779,6.849-6.041,11.42-6.049
	v246.764H255.199z"/>
<g>
</g>
<g>
</g>
<g>
</g>
<g>
</g>
<g>
</g>
<g>
</g>
<g>
</g>
<g>
</g>
<g>
</g>
<g>
</g>
<g>
</g>
<g>
</g>
<g>
</g>
<g>
</g>
<g>
</g>
</svg>
