<?xml version="1.0" encoding="iso-8859-1"?>
<!-- Generator: Adobe Illustrator 19.0.0, SVG Export Plug-In . SVG Version: 6.00 Build 0)  -->
<svg version="1.1" id="Layer_1" xmlns="http://www.w3.org/2000/svg" xmlns:xlink="http://www.w3.org/1999/xlink" x="0px" y="0px"
	 viewBox="0 0 512 512" style="enable-background:new 0 0 512 512;" xml:space="preserve">
<path style="fill:#B3404A;" d="M288.978,512c-5.294,0-10.234-2.779-12.972-7.366l-54.437-91.224
	c-4.276-7.166-1.934-16.442,5.232-20.718c7.168-4.275,16.442-1.932,20.718,5.232l39.295,65.852L467.94,44.062L48.225,225.188
	l146.147,87.211c7.166,4.276,9.508,13.552,5.232,20.718c-4.278,7.166-13.553,9.507-20.718,5.232L7.367,235.995
	c-4.873-2.907-7.704-8.3-7.334-13.961s3.88-10.639,9.09-12.887L490.902,1.238c5.689-2.452,12.293-1.189,16.672,3.188
	c4.377,4.379,5.642,10.986,3.188,16.672L302.853,502.879c-2.248,5.21-7.225,8.72-12.887,9.09
	C289.635,511.991,289.306,512,288.978,512z"/>
<polygon style="fill:#F4B2B0;" points="496.89,15.112 15.11,223.021 186.629,325.373 "/>
<path style="fill:#B3404A;" d="M186.624,340.483c-2.658,0-5.332-0.7-7.738-2.135L7.367,235.995c-4.873-2.907-7.704-8.3-7.334-13.961
	s3.88-10.639,9.09-12.887L490.902,1.238c6.656-2.872,14.416-0.612,18.488,5.387s3.309,14.044-1.818,19.171l-310.26,310.262
	C194.4,338.969,190.532,340.483,186.624,340.483z M48.225,225.188l136.041,81.181L430.351,60.282L48.225,225.188z"/>
<g>
</g>
<g>
</g>
<g>
</g>
<g>
</g>
<g>
</g>
<g>
</g>
<g>
</g>
<g>
</g>
<g>
</g>
<g>
</g>
<g>
</g>
<g>
</g>
<g>
</g>
<g>
</g>
<g>
</g>
</svg>
